<?xml version="1.0" standalone="no"?>
<!DOCTYPE svg PUBLIC "-//W3C//DTD SVG 20010904//EN"
 "http://www.w3.org/TR/2001/REC-SVG-20010904/DTD/svg10.dtd">
<svg version="1.0" xmlns="http://www.w3.org/2000/svg"
 width="512.000000pt" height="512.000000pt" viewBox="0 0 512.000000 512.000000"
 preserveAspectRatio="xMidYMid meet">
<metadata>
Created by potrace 1.14, written by Peter Selinger 2001-2017
</metadata>
<g transform="translate(0.000000,512.000000) scale(0.100000,-0.100000)"
fill="#000000" stroke="none">
<path d="M833 5106 c-88 -28 -168 -99 -206 -185 -18 -40 -21 -67 -21 -198 l-1
-153 -65 -1 c-36 0 -82 -3 -104 -5 -166 -20 -266 -206 -193 -357 51 -103 122
-143 259 -146 51 -1 94 -4 97 -6 2 -3 4 -44 3 -92 0 -98 6 -116 47 -137 28
-15 28 -17 28 -101 0 -65 -4 -85 -14 -85 -8 0 -25 -11 -38 -24 -20 -20 -24
-34 -24 -82 1 -33 0 -77 0 -99 l-1 -40 -73 3 c-99 5 -173 -18 -226 -67 -84
-79 -106 -195 -57 -295 50 -101 135 -146 278 -146 74 0 78 -1 79 -22 2 -84 0
-630 -3 -633 -2 -2 -42 -5 -88 -6 -142 -3 -216 -43 -265 -143 -68 -138 4 -308
149 -351 23 -7 77 -13 120 -13 43 0 80 -2 83 -5 4 -4 7 -536 4 -639 -1 -16
-12 -18 -84 -18 -49 0 -102 -6 -129 -16 -198 -67 -229 -334 -53 -450 44 -29
92 -41 180 -43 44 -1 81 -4 83 -6 2 -2 5 -70 6 -152 2 -138 4 -152 29 -204 32
-66 99 -132 165 -162 l47 -22 1910 0 1910 0 54 29 c100 52 164 139 179 243 5
37 8 917 3 1030 -1 14 -14 31 -36 45 l-35 23 0 88 c0 80 2 87 20 87 11 0 27
12 37 26 16 24 17 133 17 1608 1 869 -2 1609 -6 1644 -14 120 -77 209 -184
260 l-59 27 -1890 2 c-1536 1 -1898 -1 -1932 -11z"/>
</g>
</svg>
